<svg version="1.2" xmlns="http://www.w3.org/2000/svg" viewBox="0 0 386 368" width="386" height="368">
	<title>OL06ZA1-ai</title>
	<style>
		tspan { white-space:pre } 
		.s0 { fill: #33836E } 
		.s1 { fill: #a6a8ab } 
		.t2 { font-size: 40px;fill: #33836E;font-weight: 700;font-family: "DejaVuSerif-Bold", "DejaVu Serif" } 
	</style>
	<g id="Layer 1">
		<g id="&lt;Group&gt;">
			<path id="&lt;Path&gt;" class="s0" d="m222.4 108.9h-58.4v-4.6h58.4z"/>
			<path id="&lt;Path&gt;" class="s0" d="m227.5 92.3h-68.7v-4.7h68.7z"/>
			<path id="&lt;Path&gt;" class="s1" d="m146.2 96.2c-8.4 0-15.3 6.9-15.3 15.3 0 8.4 6.9 15.3 15.3 15.3 6.3 0 12.1-4 14.3-9.9l-4.3-1.7c-1.6 4.2-5.6 6.9-10 6.9-5.9 0-10.6-4.7-10.6-10.6 0-5.9 4.7-10.6 10.6-10.6h93.9c5.9 0 10.7 4.7 10.7 10.6 0 5.9-4.8 10.6-10.7 10.6-4.4 0-8.4-2.7-9.9-6.9l-4.4 1.7c2.2 5.9 8 9.9 14.3 9.9 8.4 0 15.3-6.9 15.3-15.3 0-8.4-6.9-15.3-15.3-15.3z"/>
			<g id="&lt;Group&gt;">
				<path id="&lt;Path&gt;" class="s1" d="m187.5 222.8c1.5-0.5 3 2 4.6 1.5q1.4-0.4 2.8-0.7 2-0.5 3.9-1v-109.8l-11.3 0.5z"/>
				<path id="&lt;Path&gt;" class="s0" d="m206.7 112.5c0 0.7 0 26.3 0 46 0 7.6 0 14.4 0 18.5v41.2l11.9-5.9v-38.4c0-4.1 0-11.7 0-20.2 0-18.2 0-40.4 0-41.2z"/>
				<path id="&lt;Path&gt;" class="s0" d="m167.7 168.3v24.4 19.5l11.9 5.9v-32.6c0-4.7 0-11.6 0-19.4 0-22.4 0-51.9 0-53.6h-11.9z"/>
			</g>
			<path id="&lt;Compound Path&gt;" fill-rule="evenodd" class="s0" d="m193.2 226.6l-40.1-20c-10.5-5.2-19.2-13.1-25.4-23-6.1-9.9-9.3-21.3-9.3-33v-87.4h149.7v87.4c0 11.7-3.3 23.1-9.4 33-6.1 9.9-14.9 17.8-25.3 23zm-71.8-160.3v84.4c0 11 3 21.9 8.9 31.3 5.8 9.4 14.2 17 24.1 21.9l38.8 19.3 38.8-19.3c9.9-4.9 18.3-12.5 24.1-21.9 5.8-9.4 8.9-20.3 8.9-31.3v-84.4z"/>
			<g id="&lt;Group&gt;">
				<text id="UPLAWYERS" style="transform: matrix(1,0,0,1,49,272)" >
					<tspan x="0" y="30.4" class="t2">U</tspan><tspan  y="30.4" class="t2">P</tspan><tspan  y="30.4" class="t2">L</tspan><tspan  y="30.4" class="t2">A</tspan><tspan  y="30.4" class="t2">W</tspan><tspan  y="30.4" class="t2">Y</tspan><tspan  y="30.4" class="t2">E</tspan><tspan  y="30.4" class="t2">R</tspan><tspan  y="30.4" class="t2">S</tspan><tspan  y="30.4" class="t2">
</tspan>
				</text>
			</g>
			<g id="&lt;Group&gt;">
			</g>
			<g id="&lt;Group&gt;">
				<g id="&lt;Group&gt;">
					<g id="&lt;Group&gt;">
						<path id="&lt;Compound Path&gt;" class="s0" d="m151.6 223.2c-3.9-5.4-12.9-10-12.9-10.1 0.1 0-3.9 8.2-0.4 14.5 3.5 6.3 9.3 8.5 13.1 7 3.9-1.5 4-5.8 0.2-11.4zm-78.3-87.8c2.7 3.2 6.8 2.2 10.8-3 3.8-5.2 5.1-15.1 5.2-15.1 0.1 0-9-1.4-13.7 3.8-4.7 5.1-4.9 11.2-2.3 14.3zm3 7.4c-3.4 6.1-2.4 12.1 0.8 14.6 3.2 2.6 7 0.7 9.8-5.2 2.7-5.9 1.8-15.9 2-16 0 0.1-9 0.6-12.6 6.6zm98.2 94.9c3.6-2.4 2.8-6.6-2.5-11-5.2-4.3-15.3-6.7-15.3-6.8 0.1 0-2.1 8.9 2.8 14.2 5 5.3 11.5 6 15 3.6zm-121.5-99.7c-0.2 0 1.9 14.5 7.9 19.9 5.8 5.5 10 4.5 11.3 0.7 1.4-3.8-0.2-9.2-5.3-14.8-5-5.6-13.8-5.9-13.9-5.8zm4.9 26.2c-0.2 0 4.7 13.9 11.6 18 6.6 4.2 10.5 2.4 11.1-1.6 0.6-4.2-2-9.1-8.1-13.5-5.9-4.5-14.6-2.9-14.6-2.9zm75.2 51c-2.5-6.2-10.2-12.6-10.1-12.7 0 0-5.5 7.2-3.5 14.1 2 6.9 7.1 10.4 11 9.7 4-0.7 5.1-4.8 2.6-11.1zm-67-95.1c-3.7-6.6-12.3-8.7-12.4-8.7-0.2-0.1-1.3 14.6 3.5 21.1 4.7 6.6 9 6.5 11.1 3.1 2.2-3.5 1.6-9-2.2-15.5zm81.9 135c-0.1 0.2 14.7 2.9 22.2-1.5 7.3-4.1 7.6-8.5 4.1-10.8-3.6-2.4-9.5-2.4-16.5 0.7-7 3.1-9.8 11.5-9.8 11.6zm-47.2-24.4c-0.2 0.1 11.5 8.9 19.4 8.2 7.8-0.5 9.9-4.4 8-8.1-1.9-3.8-6.9-6.3-14.2-6.4-7.3-0.2-13.2 6.2-13.2 6.3zm22.1 14.8c-0.2 0.2 13.2 6.2 21 3.7 7.7-2.3 8.9-6.5 6.2-9.7-2.8-3.2-8.3-4.5-15.5-3.1-7.3 1.4-11.8 9.1-11.7 9.1zm-42.8-140.9c1.5-8-3-17-3-17 0 0-8.4 6.4-10.3 14.6-2.4 10.3 0.9 13.8 4.1 14 3.5 0.2 7.4-2.5 9.2-11.6zm37 98.8c-1.2-6.6-7.4-14.5-7.4-14.6 0.1 0-6.8 5.8-6.2 13 0.6 7.1 4.8 11.6 8.7 11.8 4 0.2 5.9-3.6 4.9-10.2zm-34.9 8.2c-0.1 0 9.6 11 17.4 12.1 7.7 1.1 10.5-2.2 9.4-6.2-1-4.1-5.3-7.6-12.5-9.3-7.1-1.7-14.3 3.3-14.3 3.4zm-14.4-22.5c-0.2 0 7.2 12.7 14.7 15.4 7.3 2.7 10.8 0.1 10.5-4-0.2-4.2-3.7-8.6-10.4-11.7-6.7-3.2-14.8 0.2-14.8 0.3zm17.3-10.8c3.6 1.9 6.9-0.8 8.5-7.2 1.5-6.4-1.4-16-1.3-16.1 0.1 0-8.6 2.4-10.8 9.1-2.2 6.7 0 12.4 3.6 14.2zm18.7 10.1c0.2-6.6-4.5-15.6-4.4-15.7 0.1 0.1-7.9 4.2-8.7 11.3-0.8 7.1 2.4 12.3 6.2 13.3 3.9 1.1 6.6-2.2 6.9-8.9z"/>
					</g>
				</g>
			</g>
			<g id="&lt;Group&gt;">
				<g id="&lt;Group&gt;">
					<g id="&lt;Group&gt;">
						<path id="&lt;Compound Path&gt;" class="s0" d="m234.3 234.6c3.7 1.5 9.6-0.7 13.1-7 3.5-6.3-0.5-14.5-0.5-14.5 0.1 0.1-8.9 4.7-12.8 10.1-3.8 5.6-3.7 9.9 0.2 11.4zm75.8-113.5c-4.8-5.2-13.8-3.8-13.8-3.8 0.2 0 1.5 9.9 5.3 15.1 4 5.2 8.1 6.2 10.7 3 2.7-3.1 2.5-9.2-2.2-14.3zm-13.3 15.1c0.2 0.1-0.7 10.1 2 16 2.8 5.9 6.6 7.8 9.8 5.2 3.2-2.5 4.2-8.5 0.8-14.6-3.6-6-12.6-6.5-12.6-6.6zm-70.7 97.9c5-5.3 2.8-14.2 2.9-14.2 0 0.1-10.1 2.5-15.4 6.8-5.2 4.4-6 8.6-2.4 11 3.5 2.4 10 1.7 14.9-3.6zm92.7-90.3c-5.1 5.6-6.7 11-5.4 14.8 1.4 3.8 5.6 4.8 11.4-0.7 6-5.4 8-19.9 7.8-19.9 0-0.1-8.8 0.2-13.8 5.8zm-5.7 23.3c-6 4.4-8.6 9.3-8 13.5 0.5 4 4.4 5.8 11.1 1.6 6.9-4.1 11.8-18 11.6-18 0 0-8.7-1.6-14.7 2.9zm-57.9 59.2c3.9 0.7 9-2.8 11-9.7 2-6.9-3.5-14.1-3.5-14.1 0.1 0.1-7.6 6.5-10.1 12.7-2.5 6.3-1.4 10.4 2.6 11.1zm62.2-90.7c2.1 3.4 6.4 3.5 11-3.1 4.9-6.5 3.8-21.2 3.6-21.1-0.1 0-8.7 2.1-12.4 8.7-3.8 6.5-4.4 12-2.2 15.5zm-89.5 107.9c-7-3.1-12.9-3.1-16.5-0.7-3.5 2.3-3.2 6.7 4.1 10.8 7.4 4.4 22.3 1.7 22.2 1.5 0-0.1-2.8-8.5-9.8-11.6zm43.8-19.1c-7.4 0.1-12.3 2.6-14.2 6.4-1.9 3.7 0.2 7.6 8 8.1 7.9 0.7 19.6-8.1 19.4-8.2 0-0.1-5.9-6.5-13.2-6.3zm-20.6 12c-7.3-1.4-12.8-0.1-15.5 3.1-2.7 3.2-1.5 7.4 6.2 9.7 7.8 2.5 21.2-3.5 21-3.7 0.1 0-4.4-7.7-11.7-9.1zm63.7-120.2c3.2-0.2 6.5-3.7 4.1-14-1.9-8.2-10.3-14.6-10.3-14.6 0 0-4.5 9-3 17 1.8 9.1 5.7 11.8 9.2 11.6zm-41.3 97.4c3.9-0.2 8.1-4.7 8.7-11.8 0.6-7.2-6.3-13-6.2-13 0 0.1-6.2 8-7.4 14.6-1.1 6.6 0.9 10.4 4.9 10.2zm15.6-5.4c-7.1 1.7-11.4 5.2-12.5 9.3-1 4 1.8 7.3 9.5 6.2 7.8-1.1 17.5-12.1 17.3-12.1 0-0.1-7.1-5.1-14.3-3.4zm14-19.4c-6.7 3.1-10.2 7.5-10.4 11.7-0.3 4.1 3.1 6.7 10.5 4 7.5-2.7 14.9-15.4 14.7-15.4 0-0.1-8.1-3.5-14.8-0.3zm1.1-24.7c-2.2-6.7-10.9-9.1-10.8-9.1 0.1 0.1-2.8 9.7-1.3 16.1 1.6 6.4 4.9 9.1 8.5 7.2 3.6-1.8 5.8-7.5 3.6-14.2zm-15.5 33.2c3.9-1 7.1-6.2 6.3-13.3-0.8-7.1-8.8-11.2-8.7-11.3 0.1 0.1-4.6 9.1-4.4 15.7 0.3 6.7 3 10 6.8 8.9z"/>
					</g>
				</g>
			</g>
			<path id="&lt;Path&gt;" class="s0" d="m193.2 231.8l3.3 6.5 7.3 1.1-5.3 5.1 1.3 7.3-6.6-3.4-6.5 3.4 1.3-7.3-5.3-5.1 7.3-1.1z"/>
		</g>
		<g id="&lt;Group&gt;">
			<g id="&lt;Group&gt;">
			</g>
			<g id="&lt;Group&gt;">
			</g>
			<g id="&lt;Group&gt;">
			</g>
			<g id="&lt;Group&gt;">
				<g id="&lt;Group&gt;">
					<g id="&lt;Group&gt;">
					</g>
				</g>
			</g>
			<g id="&lt;Group&gt;">
				<g id="&lt;Group&gt;">
					<g id="&lt;Group&gt;">
					</g>
				</g>
			</g>
		</g>
		<text id="" style="transform: matrix(1,0,0,1,256,299)" >
		</text>
	</g>
</svg>